<svg xmlns="http://www.w3.org/2000/svg" viewBox="0 0 46.448 136">
  <defs>
    <style>
      .cls-1{
        fill:#d1787c
      }
      .cls-2 {
        fill:#953337
      }
      .cls-3{
        fill: #EEE;
      }
      .cls-4{
        fill:#AAA
      }
      .cls-5{
        fill:#953337
      }
    </style>
  </defs>
  <g id="Rocket_Ship" data-name="Rocket Ship" transform="translate(0.006)">
    <path id="Path_1" data-name="Path 1" class="cls-1" d="M23.253,0,21.634,1.619A59.346,59.346,0,0,0,12.956,13.81,58.949,58.949,0,0,0,5.476,44.33a25.459,25.459,0,0,0-3.384,25.9l2.769,6.719L6.48,69.91a24.822,24.822,0,0,1,3.06-7.35,68.624,68.624,0,0,0,6.023,11.673l.664,1.036H30.41l.664-1.036A68.624,68.624,0,0,0,37.1,62.56a24.645,24.645,0,0,1,3.06,7.35l1.619,7.043,2.59-6.687a25.611,25.611,0,0,0-3.384-25.9A58.85,58.85,0,0,0,33.5,13.827a59.051,59.051,0,0,0-8.63-12.208Z" transform="translate(0)"/>
    <path id="Path_2" data-name="Path 2" class="cls-2" d="M6.5,12.44H29.477c-.308-.761-.615-1.506-.952-2.25H7.452C7.115,10.935,6.808,11.68,6.5,12.44Z" transform="translate(5.24 6.308)"/>
    <path id="Path_3" data-name="Path 3" class="cls-3" d="M17.8,18.81a9,9,0,1,0,9,9A9,9,0,0,0,17.8,18.81Z" transform="translate(5.451 11.644)"/>
    <path id="Path_4" data-name="Path 4" class="cls-4" d="M11.437,66.968A1.126,1.126,0,0,1,10.3,65.835h0v-14.8a1.134,1.134,0,0,1,2.25-.275.786.786,0,0,1,0,.275v14.8A1.133,1.133,0,0,1,11.437,66.968Z" transform="translate(6.376 30.806)"/>
    <path id="Path_5" data-name="Path 5" class="cls-4" d="M11.433,79.19A1.126,1.126,0,0,1,10.3,78.056V63.841a1.134,1.134,0,0,1,2.25,0V78.056A1.133,1.133,0,0,1,11.433,79.19Z" transform="translate(6.38 38.904)"/>
    <path id="Path_6" data-name="Path 6" class="cls-4" d="M14.727,94.945a1.126,1.126,0,0,1-1.133-1.133V51.036a1.134,1.134,0,0,1,2.25-.275.786.786,0,0,1,0,.275V93.86A1.113,1.113,0,0,1,14.727,94.945Z" transform="translate(8.413 30.806)"/>
    <path id="Path_7" data-name="Path 7" class="cls-4" d="M14.727,86.306a1.126,1.126,0,0,1-1.133-1.133V81.546a1.134,1.134,0,0,1,2.25-.275.786.786,0,0,1,0,.275v3.627A1.133,1.133,0,0,1,14.727,86.306Z" transform="translate(8.413 49.694)"/>
    <path id="Path_8" data-name="Path 8" class="cls-4" d="M18.023,80.43A1.126,1.126,0,0,1,16.89,79.3V50.931a1.134,1.134,0,0,1,2.25,0V79.3A1.133,1.133,0,0,1,18.023,80.43Z" transform="translate(10.46 30.912)"/>
    <path id="Path_9" data-name="Path 9" class="cls-4" d="M18.063,77.692a1.126,1.126,0,0,1-1.133-1.133V72.381a1.134,1.134,0,0,1,2.25,0v4.145a1.127,1.127,0,0,1-1.1,1.166Z" transform="translate(10.484 44.19)"/>
    <path id="Path_10" data-name="Path 10" class="cls-2" d="M5.89,38.64Z" transform="translate(3.65 23.92)"/>
    <path id="Path_11" data-name="Path 11" class="cls-2" d="M4.49,33.25a3.272,3.272,0,0,0-.826,3.173,45.7,45.7,0,0,0,2.7,7.3c.308-.583.631-1.166.971-1.732A48.577,48.577,0,0,1,4.49,33.25Z" transform="translate(2.2 20.583)"/>
    <path id="Path_12" data-name="Path 12" class="cls-2" d="M22.92,38.64Z" transform="translate(14.192 23.92)"/>
    <path id="Path_13" data-name="Path 13" class="cls-2" d="M25.77,33.25a3.272,3.272,0,0,1,.826,3.173,45.7,45.7,0,0,1-2.7,7.3c-.308-.583-.631-1.166-.971-1.732a48.577,48.577,0,0,0,2.85-8.743Z" transform="translate(14.192 20.583)"/>
    <path id="Path_14" data-name="Path 14" class="cls-5" d="M17.8,21.06a6.751,6.751,0,1,1-6.751,6.751h0A6.758,6.758,0,0,1,17.8,21.06m0-2.25a9,9,0,1,0,9,9A9,9,0,0,0,17.8,18.81Z" transform="translate(5.451 11.644)"/>
  </g>
</svg>
