<?xml version="1.0" encoding="utf-8"?>
<!-- Generator: Adobe Illustrator 22.0.1, SVG Export Plug-In . SVG Version: 6.00 Build 0)  -->
<svg version="1.1" id="Layer_1" xmlns="http://www.w3.org/2000/svg" xmlns:xlink="http://www.w3.org/1999/xlink" x="0px" y="0px"
	 viewBox="0 0 361 54" style="enable-background:new 0 0 361 54;" xml:space="preserve">
<g>
	<path d="M21.6,10.8L43.1,27V16.2L21.6,0V10.8z M0,16.2l43.1,32.3V37.8L0,5.5V16.2z M0,37.8L21.6,54V43.1L0,27V37.8z M63.8,18.4
		c0-2.8,1.1-4.6,3.7-4.6c2.5,0,3.7,1.6,3.7,4.6v1h3.4v-0.9c0-4.8-2.3-8-7.1-8s-7.1,3-7.1,8c0,9,10.6,9.6,10.6,16.7
		c0,2.9-1.1,4.6-3.8,4.6c-2.5,0-3.8-1.6-3.8-4.6v-2h-3.3V35c0,4.8,2.3,8,7.2,8s7.2-3.2,7.2-8C74.5,26.3,63.8,25.6,63.8,18.4z
		 M95.7,10.9h-3.5l-8.5,15.5V10.9h-3.5v32h3.5V32.1l1.9-3.2l6.9,13.8h3.7l-8.4-17.4L95.7,10.9z M115.5,34.1c0-3.4-1.1-5.8-4.1-6.7
		c2.8-0.9,3.9-3,3.9-6.6v-2.7c0-4.7-2.2-7.3-7.1-7.3h-7.1v32h3.5V29.3h2.5c2.9,0,4.7,1.1,4.7,4.7v5.1c0,2.2,0.1,2.9,0.6,3.9h3.5
		c-0.6-1.1-0.6-2.4-0.6-3.8C115.5,39.2,115.5,34.1,115.5,34.1z M107.5,26h-2.7V14.2h3.4c2.7,0,3.7,1.5,3.7,4.4v3
		C111.9,25.1,110.3,26,107.5,26z M132.5,35.4c0,2.9-1.1,4.6-3.7,4.6c-2.7,0-3.8-1.8-3.8-4.6V10.9h-3.5v24.2c0,4.8,2.3,8.1,7.1,8.1
		c4.9,0,7.2-3.3,7.2-8.1V10.9h-3.3V35.4z M152,36.5L146.8,11h-4.9v32h3V17.5l5.3,25.4h3.4l5.1-25.6V43h3.4V10.9h-4.9L152,36.5z
		 M178.5,25.9c2.8-0.9,3.8-2.9,3.8-6.3V18c0-4.7-1.9-7.1-7-7.1h-7.2v32h7.3c4.9,0,7.3-2.7,7.3-7.5v-2.7
		C182.8,29.2,181.5,26.7,178.5,25.9z M171.6,14.2h3.5c2.5,0,3.5,1.4,3.5,4.2v1.9c0,3.3-1.5,4.2-4.3,4.2h-2.8L171.6,14.2L171.6,14.2z
		 M179.3,35.4c0,2.9-1.1,4.3-3.8,4.3h-3.8V27.8h3c3,0,4.4,1.1,4.4,4.7v2.9L179.3,35.4L179.3,35.4z M192.1,10.9h-3.5v32h12.7v-3.3
		h-9.1L192.1,10.9L192.1,10.9z M219.4,14.2v-3.3h-13.2v32h13.2v-3.3h-9.6V28.2h7.9V25h-7.9V14.1L219.4,14.2L219.4,14.2z"/>
	<path d="M232.3,19.7L232.3,19.7l-0.1,23.5h-4.6V10.7h6.4l5.1,19.4h0.1V10.7h4.5v32.4h-5.2L232.3,19.7z"/>
	<path d="M252.6,24.4h7v4.6h-7v9.5h8.8v4.6h-13.9V10.7h13.9v4.6h-8.8V24.4z"/>
	<path d="M263.1,10.7h15.8v4.6h-5.3v27.8h-5.1V15.4h-5.3V10.7z"/>
	<path d="M292.4,25.9L292.4,25.9l-1.9,17.3h-7l-3.6-32.4h5l2.7,25.6h0.1l2.4-25.6h4.9l2.5,25.8h0.1l2.6-25.8h4.4L301,43.2h-6.8
		L292.4,25.9z"/>
	<path d="M306.7,18.5c0-5.2,2.7-8.2,7.7-8.2c5,0,7.7,3,7.7,8.2v16.9c0,5.2-2.7,8.2-7.7,8.2c-5,0-7.7-3-7.7-8.2V18.5z M311.8,35.7
		c0,2.3,1,3.2,2.6,3.2c1.6,0,2.6-0.9,2.6-3.2V18.2c0-2.3-1-3.2-2.6-3.2c-1.6,0-2.6,0.9-2.6,3.2V35.7z"/>
	<path d="M336.1,43.2c-0.3-0.8-0.5-1.4-0.5-4v-5.1c0-3-1-4.1-3.3-4.1h-1.8v13.2h-5.1V10.7h7.7c5.3,0,7.5,2.5,7.5,7.5v2.6
		c0,3.3-1.1,5.5-3.3,6.5v0.1c2.6,1.1,3.4,3.5,3.4,6.9v5c0,1.6,0,2.7,0.6,3.9L336.1,43.2L336.1,43.2z M330.6,15.4v10h2
		c1.9,0,3-0.8,3-3.4v-3.2c0-2.3-0.8-3.3-2.6-3.3L330.6,15.4L330.6,15.4z"/>
	<path d="M350.8,30.2l-1.6,3v10h-5.1V10.7h5.1v14h0.1l6.6-14h5.1l-7.1,14.5l7.1,18h-5.2L350.8,30.2z"/>
</g>
</svg>
